# xmcd
#
# Track frame offsets:
#	150
#	24754
#	54627
#	73191
#	90818
#	106113
#	127041
#	156612
#	174784
#	193514
#	210917
#	227941
#
# Disc length: 3313 seconds
#
# Revision: 1
# Processed by: cddbd v1.5.2PL0 Copyright (c) Steve Scherf et al.
# Submitted via: audiograbber 1.83.01
#
DISCID=940cef0c
DTITLE=Hayden - Augenblicke
DYEAR=1900
DGENRE=
TTITLE0=In meinem Film
TTITLE1=Nicht der Mann (acoustic version) 
TTITLE2=Paradies
TTITLE3=Scheißspiel
TTITLE4=Nach Haus
TTITLE5=Das süsse Leben (acoustic version)
TTITLE6=Nicht der Mann
TTITLE7=Adrenalin
TTITLE8=Vorbei (live)
TTITLE9=Du und Ich (9.12.4)
TTITLE10=Überlebenstour
TTITLE11=Unruhsamer Zeiger (classic version)
EXTD=
EXTT0=
EXTT1=
EXTT2=
EXTT3=
EXTT4=
EXTT5=
EXTT6=
EXTT7=
EXTT8=
EXTT9=
EXTT10=
EXTT11=
PLAYORDER=
